<?xml version="1.0" encoding="UTF-8"?>
<svg version="1.1" viewBox="0 0 2048 2048" width="31.88" height="32" xmlns="http://www.w3.org/2000/svg">
<path transform="translate(1023,209)" d="m0 0 4 1 10 13 11 13 11 14 14 17 8 10 13 16 9 11 11 14 14 17 9 11 26 32 8 10 26 32 11 14 11 13 11 14 9 11 26 32 9 11 13 16 11 14 11 13 11 14 14 17 11 14 14 17 26 32 11 14 11 13 11 14 9 11 13 16 14 17 11 14 14 17 26 32 8 10 14 17 11 14 1 3h-172l-11-14-11-13-9-11-11-14-14-17-8-10-9-11-13-16-8-10-13-16-11-14-12-14-13-17-9-10-10-13-14-17-8-10-26-32-9-11-11-14-14-17-9-11-26-32-11-14-14-17-9-11-13-16-16-20-5 5-11 13-8 10-9 11-11 14-11 13-11 14-9 11-13 16-9 11-8 10-14 17-11 14-9 11-13 16-9 11-26 32-11 14-9 11-11 13-7 9-9 11-8 10-13 16-9 11-11 14-11 13-7 9-14 17-11 14-9 11-13 16-9 11-26 32-11 14-9 11-11 13-7 9-9 11-8 10-13 16-9 11-11 14-11 13-7 9-13 16-11 14-11 13-11 14-11 13-11 14-14 17-11 14-9 11-11 13-7 9-9 11-8 10-13 16-9 11-11 14-11 13-7 9-13 16-11 14-11 13-11 14-11 13-10 13-11 13-11 14-13 16-11 13-7 9-9 11-8 11 4 7 10 13 8 11 9 12 14 19 16 21 13 18 33 44 14 19 16 21 10 14 13 17 11 15 14 19 4 5v2l549 1v-523l3-3 26-15 34-20 24-14 26-15 19-12 3 1-1 614-21 21-3 4h-2l-2 4h-2l-2 4h-2l-2 4h-2l-2 4h-2l-2 4h-2l-2 4h-2l-2 4h-2l-2 4h-2l-2 4h-2l-2 4h-2l-2 4h-2l-2 4h-2l-2 4h-2l-2 4h-2l-2 4h-2l-2 4h-2l-1 3-8 7-22 22h-627l-5-5-28-38-16-21-8-11-9-12-14-19-13-17-14-19-15-20-28-38-10-13-14-19-12-16-14-19-12-16-14-19-48-64-14-19-7-10 3-5 12-14 11-14 10-12 7-9 9-11 39-48 9-11 11-14 14-17 8-10 14-17 11-14 14-17 39-48 8-10 11-14 11-13 11-14 10-12 11-14 11-13 11-14 9-11 13-16 1-2h2l2-4 13-16 11-14 11-13 11-14 11-13 7-9 13-16 9-11 11-14 14-17 8-10 26-32 9-11 11-14 10-12 9-12h2l2-4 13-16 11-14 11-13 11-14 11-13 7-9 13-16 9-11 11-14 14-17 8-10 26-32 9-11 11-14 10-12 9-12h2l2-4 13-16 11-14 11-13 11-14 11-13 7-9 13-16 9-11 11-14 14-17 9-11 13-16 11-14 14-17 11-14 10-12 8-10 14-17 11-14 11-13 11-14 11-13 11-14 13-16z" fill="#FCA832"/>
<path transform="translate(1224,1150)" d="m0 0 371 1 193 1 5 3 10 13 10 12 8 10 26 32 8 10 26 32 8 10 26 32 8 10 26 32 8 10 13 16 11 14 11 13 8 10-1 5-7 9-10 14-16 21-8 11-14 19-13 17-28 38-36 48-28 38-16 21-14 19-24 32-14 19-15 20-14 19-16 21-14 19-5 6-7 1h-643l-4-2 15-14 13-13 1-2h2v-2h2l2-4h2l2-4h2l2-4h2l2-4h2l2-4h2l2-4h2l2-4h2l2-4h2l2-4h2l2-4h2l2-4h2l2-4h2l2-4h2l2-4h2l2-4h2v-2l8-7 11-11 3-4h2l2-4h2l2-4h2l1-3 7-6 453-1 6-7 10-14 10-13 8-11 9-12 28-38 13-17 14-19 9-12 14-19 10-13 14-19 16-21 10-14 10-13 10-14-2-4-13-16-10-13-11-13-8-10-14-17-11-14-14-17-13-16-8-10-76-1-300-1-128-1v-109l1-24z" fill="#FCA832"/>
<path transform="translate(958,844)" d="m0 0h74l59 1v159l-9 6-28 16-22 13-29 17-43 25h-3v-236z" fill="#FCA832"/>
</svg>
